<svg width="100" height="100" fill="none" xmlns="http://www.w3.org/2000/svg"><g style="mix-blend-mode:multiply"><path d="M28.347 99.248c15.656 0 28.347-12.692 28.347-28.348 0-15.655-12.691-28.347-28.347-28.347S0 55.245 0 70.9c0 15.656 12.691 28.347 28.347 28.347z" fill="#3A5A98"/><path d="M24.343 61.798v4.1h-3.066v5.016h3.066v14.902h6.297V70.914h4.227s.395-2.405.587-5.034h-4.79v-3.43c0-.512.687-1.2 1.366-1.2h3.431v-5.222h-4.665c-6.61 0-6.453 5.02-6.453 5.77z" fill="#fff"/><path d="M70.922 99.291c15.668 0 28.369-12.701 28.369-28.369S86.59 42.553 70.922 42.553s-28.369 12.701-28.369 28.37c0 15.667 12.701 28.368 28.37 28.368z" fill="#D42428"/><path d="M78.663 77.489H77.12l.007-.905a.73.73 0 01.726-.73h.1a.73.73 0 01.727.73l-.018.905zM72.88 75.55c-.39 0-.71.266-.71.591v4.398c0 .325.32.59.71.59.393 0 .713-.265.713-.59v-4.398c0-.325-.32-.59-.713-.59zm9.39-2.46v8.367c0 2.008-1.723 3.65-3.83 3.65H62.695c-2.107 0-3.83-1.643-3.83-3.65v-8.366c0-2.008 1.723-3.65 3.83-3.65H78.44c2.107 0 3.83 1.643 3.83 3.65zm-18.525 9.276l-.001-8.814 1.952.001v-1.306l-5.203-.008v1.283l1.624.005v8.839h1.628zm5.85-7.5h-1.627v4.706c0 .68.04 1.021-.002 1.141-.133.365-.728.752-.96.04-.038-.125-.004-.502-.004-1.15l-.008-4.738h-1.618l.006 4.664c0 .715-.016 1.248.005 1.49.04.428.025.927.419 1.212.731.533 2.135-.08 2.486-.841l-.003.971 1.306.002v-7.497zm5.207 5.389l-.003-3.917c-.002-1.494-1.107-2.388-2.609-1.18l.007-2.912-1.626.002-.008 10.052 1.337-.02.121-.626c1.71 1.585 2.784.5 2.78-1.4zm5.093-.52l-1.22.007c0 .05-.003.106-.003.167v.688a.67.67 0 01-.667.668h-.239a.67.67 0 01-.667-.668v-1.81h2.794v-1.062c0-.776-.02-1.552-.084-1.996-.2-1.404-2.15-1.627-3.136-.908-.31.225-.546.525-.684.93-.138.403-.207.954-.207 1.655v2.336c.001 3.882 4.67 3.333 4.114-.006zm-6.26-12.68c.084.207.215.373.392.5.174.123.399.186.666.186.235 0 .443-.064.623-.196s.333-.328.457-.59l-.03.645h1.813v-7.792h-1.428v6.065a.598.598 0 01-.596.596.599.599 0 01-.594-.596v-6.065h-1.49v5.255c0 .67.012 1.116.032 1.343.021.225.072.44.156.649zm-5.496-4.401c0-.748.062-1.332.184-1.753.123-.42.346-.757.667-1.011.32-.256.732-.384 1.23-.384.42 0 .779.084 1.08.246.3.164.534.377.695.64.165.263.276.534.336.811.061.281.091.705.091 1.276v1.971c0 .723-.029 1.255-.084 1.593a2.528 2.528 0 01-.357.946 1.7 1.7 0 01-.699.648 2.2 2.2 0 01-.984.21c-.413 0-.762-.058-1.049-.18-.287-.12-.51-.3-.668-.54a2.392 2.392 0 01-.34-.873c-.07-.341-.102-.854-.102-1.537v-2.063zm1.42 3.096c0 .44.326.8.722.8.396 0 .72-.36.72-.8V61.6c0-.44-.324-.801-.72-.801-.396 0-.722.36-.722.801v4.149zm-5.02 2.094h1.712l.001-5.976 2.023-5.12h-1.872l-1.076 3.803-1.09-3.813h-1.852l2.151 5.133.003 5.973z" fill="#fff"/></g><g style="mix-blend-mode:multiply"><path d="M50.336 56.738c15.668 0 28.37-12.702 28.37-28.37C78.705 12.702 66.003 0 50.335 0 34.67 0 21.968 12.701 21.968 28.369c0 15.667 12.7 28.369 28.368 28.369z" fill="#7AD768"/><path d="M59.722 37.972a1.537 1.537 0 01-2.104.552c-4.04-2.361-8.708-2.74-11.913-2.643-3.55.108-6.154.809-6.18.816a1.539 1.539 0 01-.815-2.965c.117-.032 2.92-.793 6.815-.922 2.295-.075 4.504.084 6.566.476 2.61.495 4.992 1.364 7.079 2.584.733.428.98 1.37.552 2.102zm2.858-5.937a1.82 1.82 0 01-2.491.654c-4.786-2.797-10.316-3.247-14.112-3.131-4.206.128-7.29.958-7.32.966a1.82 1.82 0 11-.965-3.512c.138-.038 3.457-.94 8.072-1.092 2.719-.09 5.335.1 7.777.563 3.093.587 5.914 1.617 8.386 3.061a1.82 1.82 0 01.654 2.491zm1.758-5.398c-.383 0-.77-.098-1.125-.306-11.38-6.65-26.14-2.696-26.287-2.655a2.234 2.234 0 11-1.187-4.308c.17-.047 4.242-1.152 9.903-1.34 3.334-.109 6.544.123 9.54.692 3.793.72 7.254 1.982 10.285 3.754a2.234 2.234 0 01-1.13 4.163z" fill="#fff"/></g></svg>