<svg width="84" height="77" viewBox="0 0 84 77" fill="none" xmlns="http://www.w3.org/2000/svg">
<path d="M42.2185 83.757C41.2159 83.757 40.2543 83.3587 39.5453 82.6497C38.8364 81.9408 38.4381 80.9792 38.4381 79.9766V68.6354H23.3166C21.3113 68.6354 19.3882 67.8389 17.9703 66.421C16.5524 65.003 15.7558 63.0799 15.7558 61.0747V23.2708C15.7558 21.2656 16.5524 19.3425 17.9703 17.9246C19.3882 16.5067 21.3113 15.7101 23.3166 15.7101H76.2419C78.2471 15.7101 80.1702 16.5067 81.5882 17.9246C83.0061 19.3425 83.8027 21.2656 83.8027 23.2708V61.0747C83.8027 63.0799 83.0061 65.003 81.5882 66.421C80.1702 67.8389 78.2471 68.6354 76.2419 68.6354H60.7423L46.7549 82.6607C45.9989 83.3411 45.0916 83.757 44.1087 83.757H42.2185ZM8.19504 53.5139H0.634277V8.14931C0.634277 6.14407 1.43086 4.22096 2.84877 2.80304C4.26669 1.38513 6.1898 0.588547 8.19504 0.588547H68.6811V8.14931H8.19504V53.5139Z" fill="#E2E4EB" fill-opacity="0.4"/>
</svg>
