<svg width="49" height="49" viewBox="0 0 49 49" fill="none" xmlns="http://www.w3.org/2000/svg">
<rect x="0.0571289" y="0.375977" width="48" height="48" rx="15" fill="#3C5A9A"/>
<g clip-path="url(#clip0_2_16)">
<path d="M24.357 33.9359C30.4321 33.9359 35.357 29.011 35.357 22.9358C35.357 16.8607 30.4321 11.9358 24.357 11.9358C18.2818 11.9358 13.357 16.8607 13.357 22.9358C13.357 29.011 18.2818 33.9359 24.357 33.9359Z" fill="#3C5A9A"/>
<path d="M27.9334 15.3123H25.4966C24.0506 15.3123 22.4421 15.9205 22.4421 18.0166C22.4492 18.747 22.4421 19.4465 22.4421 20.2337H20.7692V22.8957H22.4939V30.5594H25.6631V22.8452H27.7548L27.9441 20.2262H25.6085C25.6085 20.2262 25.6137 19.0612 25.6085 18.7228C25.6085 17.8945 26.4704 17.9419 26.5222 17.9419C26.9324 17.9419 27.7299 17.9431 27.9346 17.9419V15.3123H27.9334V15.3123Z" fill="white"/>
</g>
<defs>
<clipPath id="clip0_2_16">
<rect width="22" height="22" fill="white" transform="translate(13.3569 11.9358)"/>
</clipPath>
</defs>
</svg>
