<svg width="110" height="82" viewBox="0 0 110 82" fill="none" xmlns="http://www.w3.org/2000/svg">
<path d="M70.1302 0.144775C75.5067 0.144775 80.6629 2.28056 84.4646 6.08229C88.2663 9.88401 90.4021 15.0403 90.4021 20.4167C90.4021 25.7931 88.2663 30.9494 84.4646 34.7511C80.6629 38.5528 75.5067 40.6886 70.1302 40.6886C64.7538 40.6886 59.5975 38.5528 55.7958 34.7511C51.9941 30.9494 49.8583 25.7931 49.8583 20.4167C49.8583 15.0403 51.9941 9.88401 55.7958 6.08229C59.5975 2.28056 64.7538 0.144775 70.1302 0.144775ZM29.5864 14.6247C32.8299 14.6247 35.8417 15.4935 38.4481 17.0574C37.5793 25.3399 40.0119 33.5645 44.993 39.9936C42.097 45.5539 36.3051 49.3766 29.5864 49.3766C24.978 49.3766 20.5583 47.5459 17.2997 44.2873C14.0411 41.0287 12.2104 36.609 12.2104 32.0007C12.2104 27.3923 14.0411 22.9726 17.2997 19.714C20.5583 16.4554 24.978 14.6247 29.5864 14.6247ZM110.674 14.6247C115.282 14.6247 119.702 16.4554 122.961 19.714C126.219 22.9726 128.05 27.3923 128.05 32.0007C128.05 36.609 126.219 41.0287 122.961 44.2873C119.702 47.5459 115.282 49.3766 110.674 49.3766C103.955 49.3766 98.1634 45.5539 95.2674 39.9936C100.249 33.5645 102.681 25.3399 101.812 17.0574C104.419 15.4935 107.431 14.6247 110.674 14.6247ZM32.4823 73.9925C32.4823 62.0031 49.337 52.2726 70.1302 52.2726C90.9234 52.2726 107.778 62.0031 107.778 73.9925V84.1285H32.4823V73.9925ZM0.626465 84.1285V75.4405C0.626465 67.3896 11.5733 60.613 26.4008 58.6438C22.9835 62.5823 20.8984 68.0268 20.8984 73.9925V84.1285H0.626465ZM139.634 84.1285H119.362V73.9925C119.362 68.0268 117.277 62.5823 113.86 58.6438C128.687 60.613 139.634 67.3896 139.634 75.4405V84.1285Z" fill="#E2E4EB" fill-opacity="0.3"/>
</svg>
