<svg width="20" height="20" viewBox="0 0 21 20" fill="none" xmlns="http://www.w3.org/2000/svg">
<path d="M6.49834 0.399994C3.41114 0.399994 0.899902 2.91356 0.899902 6.00156V14.0016C0.899902 17.0888 3.41346 19.6 6.50146 19.6H14.5015C17.5887 19.6 20.0999 17.0864 20.0999 13.9984V5.99843C20.0999 2.91123 17.5863 0.399994 14.4983 0.399994H6.49834ZM16.0999 3.59999C16.5415 3.59999 16.8999 3.95839 16.8999 4.39999C16.8999 4.84159 16.5415 5.19999 16.0999 5.19999C15.6583 5.19999 15.2999 4.84159 15.2999 4.39999C15.2999 3.95839 15.6583 3.59999 16.0999 3.59999ZM10.4999 5.19999C13.1471 5.19999 15.2999 7.35279 15.2999 9.99999C15.2999 12.6472 13.1471 14.8 10.4999 14.8C7.8527 14.8 5.6999 12.6472 5.6999 9.99999C5.6999 7.35279 7.8527 5.19999 10.4999 5.19999ZM10.4999 6.79999C9.65121 6.79999 8.83728 7.13714 8.23716 7.73725C7.63704 8.33737 7.2999 9.1513 7.2999 9.99999C7.2999 10.8487 7.63704 11.6626 8.23716 12.2627C8.83728 12.8629 9.65121 13.2 10.4999 13.2C11.3486 13.2 12.1625 12.8629 12.7626 12.2627C13.3628 11.6626 13.6999 10.8487 13.6999 9.99999C13.6999 9.1513 13.3628 8.33737 12.7626 7.73725C12.1625 7.13714 11.3486 6.79999 10.4999 6.79999Z" fill="#586F88"/>
</svg>
