<svg width="49" height="49" viewBox="0 0 49 49" fill="none" xmlns="http://www.w3.org/2000/svg">
<rect x="0.0571289" y="0.375977" width="48" height="48" rx="15" fill="#2EBD59"/>
<g clip-path="url(#clip0_2_22)">
<path d="M24.0571 13.376C17.9818 13.376 13.0571 18.3006 13.0571 24.376C13.0571 30.4513 17.9818 35.376 24.0571 35.376C30.1325 35.376 35.0571 30.4513 35.0571 24.376C35.0571 18.3014 30.1325 13.3767 24.0571 13.376ZM29.1019 29.2406C28.9045 29.5649 28.4819 29.6662 28.1591 29.4688C25.5763 27.8903 22.3248 27.5337 18.496 28.4082C18.1267 28.493 17.7589 28.2618 17.6748 27.8925C17.59 27.5232 17.8204 27.1554 18.1905 27.0714C22.3803 26.1144 25.9749 26.5264 28.8745 28.2978C29.1972 28.4968 29.3 28.9178 29.1019 29.2406V29.2406ZM30.4477 26.2465C30.1993 26.6503 29.6708 26.7764 29.2678 26.5287C26.3119 24.7115 21.8038 24.1853 18.3068 25.2467C17.8534 25.384 17.3746 25.1281 17.2365 24.6755C17.0998 24.2221 17.3558 23.744 17.8084 23.6059C21.8031 22.3936 26.7698 22.9806 30.1647 25.0673C30.5686 25.3157 30.6962 25.8434 30.4477 26.2465ZM30.5633 23.127C27.0175 21.0216 21.1688 20.8279 17.7836 21.8547C17.2402 22.0199 16.6652 21.7129 16.5009 21.1694C16.3365 20.626 16.6427 20.051 17.1869 19.8859C21.0728 18.7067 27.5316 18.9341 31.6134 21.3571C32.102 21.6476 32.2627 22.2788 31.9729 22.7667C31.6839 23.2561 31.0512 23.4175 30.5633 23.127Z" fill="white"/>
</g>
<defs>
<clipPath id="clip0_2_22">
<rect width="22" height="22" fill="white" transform="translate(13.0571 13.376)"/>
</clipPath>
</defs>
</svg>
