<svg width="89" height="89" viewBox="0 0 89 89" fill="none" xmlns="http://www.w3.org/2000/svg">
<g filter="url(#filter0_d_1_43)">
<rect x="20.0571" y="16.376" width="48" height="48" rx="15" fill="black"/>
</g>
<path d="M35.7072 45.4725L35.7773 45.6705C35.7684 45.6479 35.7427 45.5786 35.7072 45.4725ZM38.4835 40.9836C38.6068 39.9193 39.0251 39.3234 39.8136 38.7125C40.9416 37.8851 42.3508 38.3531 42.3508 38.3531V35.5768C42.6934 35.5676 43.0361 35.5888 43.3749 35.6401V39.213C43.3749 39.213 41.9662 38.745 40.8381 39.5728C40.0501 40.1832 39.6309 40.7796 39.5081 41.8439C39.5043 42.4219 39.6082 43.1774 40.0869 43.8306C39.9686 43.7673 39.8479 43.6951 39.725 43.6141C38.6705 42.8753 38.4784 41.7669 38.4835 40.9836ZM49.1933 30.4433C48.4173 29.556 48.1238 28.6602 48.0177 28.0309H48.994C48.994 28.0309 48.7993 29.6809 50.2179 31.3036L50.2376 31.3254C49.8552 31.0745 49.5046 30.7783 49.1933 30.4433V30.4433ZM53.896 32.9587V36.4597C53.896 36.4597 52.6503 36.4088 51.7284 36.1641C50.4412 35.8219 49.6138 35.297 49.6138 35.297C49.6138 35.297 49.0423 34.9227 48.9961 34.8966V42.1263C48.9961 42.5288 48.8904 43.5341 48.5683 44.3726C48.1478 45.4695 47.4988 46.1894 47.3795 46.3366C47.3795 46.3366 46.5902 47.3098 45.1977 47.9652C43.9426 48.5564 42.8406 48.5414 42.5112 48.5564C42.5112 48.5564 40.6063 48.6351 38.8921 47.4728C38.5214 47.2166 38.1754 46.9265 37.8585 46.6061L37.8671 46.6125C39.5817 47.7748 41.4862 47.6961 41.4862 47.6961C41.816 47.6812 42.918 47.6961 44.1728 47.1049C45.5639 46.4495 46.3545 45.4763 46.3545 45.4763C46.4726 45.3292 47.1245 44.6092 47.5433 43.5119C47.8646 42.6738 47.9711 41.6681 47.9711 41.2656V34.0367C48.0173 34.0632 48.5884 34.4376 48.5884 34.4376C48.5884 34.4376 49.4162 34.9629 50.7034 35.3047C51.6257 35.5494 52.871 35.6003 52.871 35.6003V32.8569C53.2971 32.9565 53.6603 32.9835 53.896 32.9587V32.9587Z" fill="#EE1D52"/>
<path d="M52.8715 32.8569V35.5994C52.8715 35.5994 51.6262 35.5485 50.7039 35.3038C49.4167 34.9616 48.5889 34.4367 48.5889 34.4367C48.5889 34.4367 48.0178 34.0624 47.9716 34.0359V41.2664C47.9716 41.669 47.8659 42.6747 47.5438 43.5127C47.1233 44.61 46.4743 45.33 46.355 45.4772C46.355 45.4772 45.5652 46.4504 44.1732 47.1058C42.9185 47.697 41.8165 47.682 41.4867 47.697C41.4867 47.697 39.5821 47.7757 37.8676 46.6134L37.859 46.607C37.678 46.4241 37.5076 46.231 37.3486 46.0286C36.8015 45.3326 36.4661 44.5095 36.3818 44.2746C36.3817 44.2737 36.3817 44.2726 36.3818 44.2716C36.2462 43.8635 35.9613 42.8835 36.0002 41.9342C36.0691 40.2594 36.6338 39.2314 36.7831 38.9739C37.1785 38.2716 37.6928 37.6433 38.303 37.1168C38.8416 36.6626 39.452 36.3011 40.1092 36.0473C40.8197 35.7494 41.5805 35.5897 42.3508 35.5768V38.3531C42.3508 38.3531 40.9417 37.8868 39.814 38.7125C39.0256 39.3234 38.6072 39.9193 38.484 40.9836C38.4789 41.7669 38.6709 42.8753 39.7246 43.6146C39.8475 43.6958 39.9682 43.768 40.0865 43.831C40.2706 44.0807 40.4946 44.2982 40.7496 44.4748C41.7789 45.1546 42.6413 45.2021 43.7441 44.7606C44.4795 44.4654 45.0331 43.8002 45.2897 43.0631C45.451 42.6028 45.4489 42.1395 45.4489 41.6604V28.0309H48.0156C48.1217 28.6602 48.4152 29.556 49.1912 30.4433C49.5025 30.7783 49.8531 31.0745 50.2355 31.3254C50.3484 31.4473 50.9259 32.0501 51.6673 32.4201C52.0506 32.6114 52.4547 32.7579 52.8715 32.8569V32.8569Z" fill="white"/>
<path d="M35.3604 43.4219V43.4241L35.4237 43.6044C35.4164 43.5834 35.3929 43.5196 35.3604 43.4219Z" fill="#69C9D0"/>
<path d="M40.1093 36.0473C39.452 36.3011 38.8416 36.6626 38.3031 37.1168C37.6927 37.6444 37.1785 38.2741 36.7836 38.9777C36.6343 39.2344 36.0696 40.2632 36.0007 41.938C35.9618 42.8873 36.2467 43.8674 36.3823 44.2755C36.3822 44.2765 36.3822 44.2775 36.3823 44.2785C36.4679 44.5112 36.802 45.3343 37.3491 46.0324C37.5081 46.2348 37.6785 46.4279 37.8595 46.6108C37.2795 46.2097 36.7622 45.7247 36.3246 45.1717C35.7821 44.4817 35.4476 43.6672 35.3603 43.4268C35.3602 43.425 35.3602 43.4233 35.3603 43.4216V43.4186C35.2243 43.0109 34.9385 42.0304 34.9783 41.0799C35.0472 39.4051 35.6119 38.3771 35.7612 38.1196C36.156 37.4159 36.6701 36.7862 37.2807 36.2587C37.8191 35.8042 38.4295 35.4428 39.0868 35.1892C39.4968 35.0191 39.9239 34.8936 40.3608 34.8149C41.0191 34.6999 41.6916 34.69 42.353 34.7853V35.5768C41.582 35.5894 40.8204 35.7491 40.1093 36.0473V36.0473Z" fill="#69C9D0"/>
<path d="M48.018 28.0309H45.4513V41.6608C45.4513 42.14 45.4513 42.602 45.2921 43.0636C45.0329 43.8002 44.4815 44.4654 43.7465 44.7606C42.6432 45.2038 41.7808 45.1546 40.752 44.4748C40.4966 44.299 40.272 44.0822 40.0872 43.8332C40.9637 44.3007 41.7483 44.2926 42.7202 43.9025C43.4548 43.6073 44.007 42.9421 44.2654 42.205C44.4271 41.7447 44.425 41.2814 44.425 40.8027V27.1702H47.9692C47.9692 27.1702 47.9294 27.509 48.018 28.0309ZM52.8717 32.0984V32.8569C52.4556 32.7578 52.0523 32.6112 51.6696 32.4201C50.9282 32.05 50.3507 31.4473 50.2378 31.3254C50.3688 31.4114 50.5048 31.4897 50.645 31.5598C51.5464 32.0098 52.4341 32.1442 52.8717 32.0984V32.0984Z" fill="#69C9D0"/>
<defs>
<filter id="filter0_d_1_43" x="0.0571289" y="0.375977" width="88" height="88" filterUnits="userSpaceOnUse" color-interpolation-filters="sRGB">
<feFlood flood-opacity="0" result="BackgroundImageFix"/>
<feColorMatrix in="SourceAlpha" type="matrix" values="0 0 0 0 0 0 0 0 0 0 0 0 0 0 0 0 0 0 127 0" result="hardAlpha"/>
<feOffset dy="4"/>
<feGaussianBlur stdDeviation="10"/>
<feComposite in2="hardAlpha" operator="out"/>
<feColorMatrix type="matrix" values="0 0 0 0 0 0 0 0 0 0 0 0 0 0 0 0 0 0 0.2 0"/>
<feBlend mode="normal" in2="BackgroundImageFix" result="effect1_dropShadow_1_43"/>
<feBlend mode="normal" in="SourceGraphic" in2="effect1_dropShadow_1_43" result="shape"/>
</filter>
</defs>
</svg>
