<svg width="49" height="49" viewBox="0 0 49 49" fill="none" xmlns="http://www.w3.org/2000/svg">
<rect x="0.0571289" y="0.375977" width="48" height="48" rx="15" fill="black"/>
<path d="M15.7072 29.4726L15.7773 29.6707C15.7684 29.648 15.7427 29.5787 15.7072 29.4726ZM18.4835 24.9838C18.6068 23.9195 19.0251 23.3236 19.8136 22.7127C20.9416 21.8853 22.3508 22.3533 22.3508 22.3533V19.577C22.6934 19.5678 23.0361 19.589 23.3749 19.6403V23.2132C23.3749 23.2132 21.9662 22.7452 20.8381 23.573C20.0501 24.1834 19.6309 24.7798 19.5081 25.8441C19.5043 26.4221 19.6082 27.1775 20.0869 27.8308C19.9686 27.7675 19.8479 27.6953 19.725 27.6143C18.6705 26.8755 18.4784 25.7671 18.4835 24.9838ZM29.1933 14.4434C28.4173 13.5562 28.1238 12.6604 28.0177 12.0311H28.994C28.994 12.0311 28.7993 13.6811 30.2179 15.3037L30.2376 15.3256C29.8552 15.0746 29.5046 14.7785 29.1933 14.4434V14.4434ZM33.896 16.9589V20.4599C33.896 20.4599 32.6503 20.409 31.7284 20.1643C30.4412 19.8221 29.6138 19.2972 29.6138 19.2972C29.6138 19.2972 29.0423 18.9229 28.9961 18.8968V26.1265C28.9961 26.529 28.8904 27.5343 28.5683 28.3728C28.1478 29.4697 27.4988 30.1896 27.3795 30.3368C27.3795 30.3368 26.5902 31.31 25.1977 31.9654C23.9426 32.5566 22.8406 32.5416 22.5112 32.5566C22.5112 32.5566 20.6063 32.6353 18.8921 31.473C18.5214 31.2168 18.1754 30.9267 17.8585 30.6063L17.8671 30.6127C19.5817 31.775 21.4862 31.6963 21.4862 31.6963C21.816 31.6813 22.918 31.6963 24.1727 31.1051C25.5639 30.4497 26.3545 29.4765 26.3545 29.4765C26.4726 29.3293 27.1245 28.6094 27.5433 27.5121C27.8646 26.674 27.9711 25.6683 27.9711 25.2657V18.0369C28.0173 18.0634 28.5884 18.4377 28.5884 18.4377C28.5884 18.4377 29.4162 18.9631 30.7034 19.3049C31.6257 19.5496 32.871 19.6005 32.871 19.6005V16.8571C33.2971 16.9567 33.6603 16.9837 33.896 16.9589V16.9589Z" fill="#EE1D52"/>
<path d="M32.8715 16.8571V19.5996C32.8715 19.5996 31.6262 19.5487 30.7039 19.304C29.4167 18.9618 28.5889 18.4369 28.5889 18.4369C28.5889 18.4369 28.0178 18.0626 27.9716 18.036V25.2666C27.9716 25.6691 27.8659 26.6749 27.5438 27.5129C27.1233 28.6102 26.4743 29.3302 26.355 29.4774C26.355 29.4774 25.5652 30.4506 24.1732 31.106C22.9185 31.6972 21.8165 31.6822 21.4867 31.6972C21.4867 31.6972 19.5821 31.7759 17.8676 30.6136L17.859 30.6072C17.678 30.4243 17.5076 30.2312 17.3486 30.0288C16.8015 29.3328 16.4661 28.5097 16.3818 28.2748C16.3817 28.2738 16.3817 28.2728 16.3818 28.2718C16.2462 27.8637 15.9613 26.8836 16.0002 25.9344C16.0691 24.2596 16.6338 23.2316 16.7831 22.9741C17.1785 22.2718 17.6928 21.6434 18.303 21.117C18.8416 20.6627 19.452 20.3013 20.1092 20.0475C20.8197 19.7496 21.5805 19.5898 22.3508 19.577V22.3533C22.3508 22.3533 20.9417 21.887 19.814 22.7127C19.0256 23.3236 18.6072 23.9195 18.484 24.9838C18.4789 25.7671 18.6709 26.8755 19.7246 27.6147C19.8475 27.696 19.9682 27.7682 20.0865 27.8312C20.2706 28.0809 20.4946 28.2984 20.7496 28.475C21.7789 29.1548 22.6413 29.2023 23.7441 28.7608C24.4795 28.4656 25.0331 27.8004 25.2897 27.0633C25.451 26.603 25.4489 26.1397 25.4489 25.6606V12.0311H28.0156C28.1217 12.6604 28.4152 13.5562 29.1912 14.4434C29.5025 14.7785 29.8531 15.0746 30.2355 15.3256C30.3484 15.4475 30.9259 16.0502 31.6673 16.4203C32.0506 16.6116 32.4547 16.7581 32.8715 16.8571V16.8571Z" fill="white"/>
<path d="M15.3604 27.4221V27.4242L15.4237 27.6046C15.4164 27.5836 15.3929 27.5198 15.3604 27.4221Z" fill="#69C9D0"/>
<path d="M20.1093 20.0475C19.452 20.3013 18.8416 20.6627 18.3031 21.117C17.6927 21.6446 17.1785 22.2743 16.7836 22.9779C16.6343 23.2346 16.0696 24.2634 16.0007 25.9382C15.9618 26.8875 16.2467 27.8676 16.3823 28.2757C16.3822 28.2767 16.3822 28.2777 16.3823 28.2787C16.4679 28.5114 16.802 29.3345 17.3491 30.0326C17.5081 30.235 17.6785 30.4281 17.8595 30.611C17.2795 30.2099 16.7622 29.7249 16.3246 29.1719C15.7821 28.4819 15.4476 27.6674 15.3603 27.4269C15.3602 27.4252 15.3602 27.4235 15.3603 27.4218V27.4188C15.2243 27.0111 14.9385 26.0306 14.9783 25.0801C15.0472 23.4053 15.6119 22.3773 15.7612 22.1197C16.156 21.416 16.6701 20.7864 17.2807 20.2588C17.8191 19.8044 18.4295 19.443 19.0868 19.1894C19.4968 19.0193 19.9239 18.8938 20.3608 18.815C21.0191 18.7001 21.6916 18.6902 22.353 18.7855V19.5769C21.582 19.5896 20.8204 19.7493 20.1093 20.0475V20.0475Z" fill="#69C9D0"/>
<path d="M28.018 12.0311H25.4513V25.661C25.4513 26.1401 25.4513 26.6022 25.2921 27.0637C25.0329 27.8004 24.4815 28.4656 23.7465 28.7608C22.6432 29.204 21.7808 29.1548 20.752 28.475C20.4966 28.2992 20.272 28.0824 20.0872 27.8333C20.9637 28.3009 21.7483 28.2928 22.7202 27.9026C23.4548 27.6075 24.007 26.9422 24.2654 26.2052C24.4271 25.7449 24.425 25.2816 24.425 24.8029V11.1704H27.9692C27.9692 11.1704 27.9294 11.5092 28.018 12.0311ZM32.8717 16.0986V16.857C32.4556 16.7579 32.0523 16.6114 31.6696 16.4203C30.9282 16.0502 30.3507 15.4475 30.2378 15.3255C30.3688 15.4116 30.5048 15.4899 30.645 15.56C31.5464 16.01 32.4341 16.1443 32.8717 16.0986V16.0986Z" fill="#69C9D0"/>
</svg>
