<svg width="49" height="49" viewBox="0 0 49 49" fill="none" xmlns="http://www.w3.org/2000/svg">
<rect x="0.0571289" y="0.375977" width="48" height="48" rx="15" fill="#1DA1F2"/>
<path d="M19.6547 34.0228C28.6103 34.0228 33.5078 26.6007 33.5078 20.1645C33.5078 19.9537 33.5035 19.7439 33.494 19.535C34.447 18.8452 35.2694 17.9911 35.9227 17.0128C35.0503 17.4008 34.1115 17.6619 33.1267 17.7797C34.1319 17.1767 34.9036 16.2227 35.2678 15.0857C34.312 15.6528 33.2664 16.0527 32.176 16.2679C31.2876 15.3212 30.0227 14.7291 28.622 14.7291C25.9333 14.7291 23.7529 16.9103 23.7529 19.5991C23.7529 19.9813 23.7956 20.353 23.8792 20.7097C19.8326 20.506 16.2443 18.5678 13.8429 15.6207C13.4103 16.364 13.1828 17.2088 13.1836 18.0688C13.1836 19.7587 14.0431 21.2504 15.3503 22.1232C14.5771 22.0995 13.8209 21.8906 13.1452 21.514C13.1445 21.5344 13.1445 21.5543 13.1445 21.5762C13.1445 23.935 14.8227 25.9045 17.0506 26.3507C16.6322 26.4647 16.2004 26.5223 15.7667 26.5221C15.4535 26.5221 15.1483 26.4913 14.8517 26.4343C15.4715 28.3696 17.2689 29.7779 19.4 29.8172C17.7335 31.1239 15.6343 31.9021 13.3528 31.9021C12.9647 31.9024 12.5769 31.8799 12.1914 31.8346C14.3462 33.2163 16.9049 34.0225 19.6549 34.0225" fill="white"/>
</svg>
