<svg width="110" height="74" viewBox="0 0 110 74" fill="none" xmlns="http://www.w3.org/2000/svg">
<path d="M62.5219 26.114C58.0449 26.114 53.7513 27.8925 50.5855 31.0582C47.4198 34.2239 45.6413 38.5176 45.6413 42.9946C45.6413 47.4716 47.4198 51.7652 50.5855 54.931C53.7513 58.0967 58.0449 59.8752 62.5219 59.8752C66.9989 59.8752 71.2926 58.0967 74.4583 54.931C77.624 51.7652 79.4025 47.4716 79.4025 42.9946C79.4025 38.5176 77.624 34.2239 74.4583 31.0582C71.2926 27.8925 66.9989 26.114 62.5219 26.114ZM62.5219 71.1289C55.0602 71.1289 47.9042 68.1647 42.628 62.8885C37.3518 57.6123 34.3876 50.4563 34.3876 42.9946C34.3876 35.5329 37.3518 28.3768 42.628 23.1006C47.9042 17.8244 55.0602 14.8603 62.5219 14.8603C69.9836 14.8603 77.1397 17.8244 82.4159 23.1006C87.6921 28.3768 90.6562 35.5329 90.6562 42.9946C90.6562 50.4563 87.6921 57.6123 82.4159 62.8885C77.1397 68.1647 69.9836 71.1289 62.5219 71.1289ZM62.5219 0.793121C34.3876 0.793121 10.3609 18.2927 0.626465 42.9946C10.3609 67.6965 34.3876 85.196 62.5219 85.196C90.6562 85.196 114.683 67.6965 124.417 42.9946C114.683 18.2927 90.6562 0.793121 62.5219 0.793121Z" fill="#E2E4EB" fill-opacity="0.4"/>
</svg>
