<svg width="49" height="49" viewBox="0 0 49 49" fill="none" xmlns="http://www.w3.org/2000/svg">
<rect x="0.0571289" y="0.375977" width="48" height="48" rx="15" fill="#5181B8"/>
<g clip-path="url(#clip0_2_31)">
<path fill-rule="evenodd" clip-rule="evenodd" d="M20.6838 13.376H27.4305C33.5905 13.376 35.0571 14.8426 35.0571 21.0026V27.7493C35.0571 33.9093 33.5905 35.376 27.4305 35.376H20.6838C14.5238 35.376 13.0571 33.9093 13.0571 27.7493V21.0026C13.0571 14.8426 14.5238 13.376 20.6838 13.376Z" fill="#5181B8"/>
<path fill-rule="evenodd" clip-rule="evenodd" d="M31.0739 20.9553C31.1758 20.6155 31.0739 20.3657 30.5887 20.3657H28.9845C28.5766 20.3657 28.3887 20.5814 28.2867 20.8194C28.2867 20.8194 27.4709 22.8078 26.3152 24.0994C25.9413 24.4733 25.7713 24.5922 25.5674 24.5922C25.4654 24.5922 25.3178 24.4733 25.3178 24.1334V20.9553C25.3178 20.5474 25.1995 20.3657 24.8595 20.3657H22.3386C22.0838 20.3657 21.9305 20.555 21.9305 20.7344C21.9305 21.1211 22.5082 21.2103 22.5678 22.2979V24.6603C22.5678 25.1782 22.4743 25.2722 22.2703 25.2722C21.7265 25.2722 20.4037 23.2747 19.6191 20.9893C19.4653 20.5451 19.3111 20.3657 18.9011 20.3657H17.2969C16.8386 20.3657 16.7469 20.5814 16.7469 20.8194C16.7469 21.2443 17.2908 23.3517 19.2792 26.1389C20.6048 28.0422 22.4725 29.0741 24.172 29.0741C25.1918 29.0741 25.3178 28.8449 25.3178 28.4502V27.0116C25.3178 26.5532 25.4144 26.4618 25.7373 26.4618C25.9753 26.4618 26.3831 26.5807 27.335 27.4984C28.4226 28.5862 28.6018 29.0741 29.2137 29.0741H30.8179C31.2762 29.0741 31.5054 28.8449 31.3732 28.3926C31.2285 27.9419 30.7092 27.288 30.0201 26.5128C29.6462 26.0708 29.0854 25.5949 28.9155 25.3571C28.6776 25.0511 28.7455 24.9151 28.9155 24.6432C28.9155 24.6432 30.8699 21.8901 31.0739 20.9553V20.9553Z" fill="white"/>
</g>
<defs>
<clipPath id="clip0_2_31">
<rect width="22" height="22" fill="white" transform="translate(13.0571 13.376)"/>
</clipPath>
</defs>
</svg>
