<svg width="49" height="49" viewBox="0 0 49 49" fill="none" xmlns="http://www.w3.org/2000/svg">
<rect x="0.0571289" y="0.375977" width="48" height="48" rx="15" fill="#C51A1A"/>
<path d="M21.5571 28.126L28.0446 24.376L21.5571 20.626V28.126ZM36.0071 18.3385C36.1696 18.926 36.2821 19.7135 36.3571 20.7135C36.4446 21.7135 36.4821 22.576 36.4821 23.326L36.5571 24.376C36.5571 27.1135 36.3571 29.126 36.0071 30.4135C35.6946 31.5385 34.9696 32.2635 33.8446 32.576C33.2571 32.7385 32.1821 32.851 30.5321 32.926C28.9071 33.0135 27.4196 33.051 26.0446 33.051L24.0571 33.126C18.8196 33.126 15.5571 32.926 14.2696 32.576C13.1446 32.2635 12.4196 31.5385 12.1071 30.4135C11.9446 29.826 11.8321 29.0385 11.7571 28.0385C11.6696 27.0385 11.6321 26.176 11.6321 25.426L11.5571 24.376C11.5571 21.6385 11.7571 19.626 12.1071 18.3385C12.4196 17.2135 13.1446 16.4885 14.2696 16.176C14.8571 16.0135 15.9321 15.901 17.5821 15.826C19.2071 15.7385 20.6946 15.701 22.0696 15.701L24.0571 15.626C29.2946 15.626 32.5571 15.826 33.8446 16.176C34.9696 16.4885 35.6946 17.2135 36.0071 18.3385Z" fill="white"/>
</svg>
