<svg width="49" height="49" viewBox="0 0 49 49" fill="none" xmlns="http://www.w3.org/2000/svg">
<g filter="url(#filter0_i_1_29)">
<path d="M33.0571 0.375999H15.0571C6.77283 0.375999 0.0571003 7.09173 0.0571003 15.376V33.376C0.0571003 41.6603 6.77283 48.376 15.0571 48.376H33.0571C41.3414 48.376 48.0571 41.6603 48.0571 33.376V15.376C48.0571 7.09173 41.3414 0.375999 33.0571 0.375999Z" fill="#C51A1A"/>
<path d="M22 27.5L28.4875 23.75L22 20V27.5ZM36.45 17.7125C36.6125 18.3 36.725 19.0875 36.8 20.0875C36.8875 21.0875 36.925 21.95 36.925 22.7L37 23.75C37 26.4875 36.8 28.5 36.45 29.7875C36.1375 30.9125 35.4125 31.6375 34.2875 31.95C33.7 32.1125 32.625 32.225 30.975 32.3C29.35 32.3875 27.8625 32.425 26.4875 32.425L24.5 32.5C19.2625 32.5 16 32.3 14.7125 31.95C13.5875 31.6375 12.8625 30.9125 12.55 29.7875C12.3875 29.2 12.275 28.4125 12.2 27.4125C12.1125 26.4125 12.075 25.55 12.075 24.8L12 23.75C12 21.0125 12.2 19 12.55 17.7125C12.8625 16.5875 13.5875 15.8625 14.7125 15.55C15.3 15.3875 16.375 15.275 18.025 15.2C19.65 15.1125 21.1375 15.075 22.5125 15.075L24.5 15C29.7375 15 33 15.2 34.2875 15.55C35.4125 15.8625 36.1375 16.5875 36.45 17.7125Z" fill="white"/>
</g>
<defs>
<filter id="filter0_i_1_29" x="0.0571003" y="0.375999" width="48" height="52" filterUnits="userSpaceOnUse" color-interpolation-filters="sRGB">
<feFlood flood-opacity="0" result="BackgroundImageFix"/>
<feBlend mode="normal" in="SourceGraphic" in2="BackgroundImageFix" result="shape"/>
<feColorMatrix in="SourceAlpha" type="matrix" values="0 0 0 0 0 0 0 0 0 0 0 0 0 0 0 0 0 0 127 0" result="hardAlpha"/>
<feOffset dy="4"/>
<feGaussianBlur stdDeviation="10"/>
<feComposite in2="hardAlpha" operator="arithmetic" k2="-1" k3="1"/>
<feColorMatrix type="matrix" values="0 0 0 0 0.772549 0 0 0 0 0.101961 0 0 0 0 0.101961 0 0 0 0.2 0"/>
<feBlend mode="normal" in2="shape" result="effect1_innerShadow_1_29"/>
</filter>
</defs>
</svg>
